<svg width="550" height="550" viewBox="0 0 550 550" fill="none" xmlns="http://www.w3.org/2000/svg">
<rect width="550" height="550" fill="white"/>
<rect width="550" height="550" fill="url(#paint0_linear)"/>
<g filter="url(#filter0_d)">
<circle cx="275" cy="275" r="255" fill="url(#paint1_linear)" stroke="url(#paint2_linear)" stroke-width="10"/>
<g filter="url(#filter1_d)">
<path fill-rule="evenodd" clip-rule="evenodd" d="M209.91 228.64C208.018 238.335 206.013 248.609 203.758 259.397C199.291 280.765 194.464 295.291 188.994 303.923C186.254 308.246 182.752 312.064 178.106 313.902C172.966 315.936 167.976 314.965 163.945 312.629C160.221 310.47 157.155 307.1 154.635 303.622C152.047 300.048 149.634 295.791 147.389 291.241C142.902 282.142 138.73 271.125 135.006 260.393C131.488 250.258 127.668 243.292 124.06 239.017C120.431 234.717 117.779 233.966 116.391 233.966C115.003 233.966 112.351 234.717 108.722 239.017C105.114 243.292 101.294 250.258 97.776 260.393L82.1527 255.098C86.0254 243.939 90.6594 234.935 96.0378 228.562C101.395 222.215 108.261 217.643 116.391 217.643C124.521 217.643 131.387 222.215 136.744 228.562C142.122 234.935 146.756 243.939 150.629 255.098C154.295 265.66 158.204 275.914 162.236 284.089C164.251 288.175 166.207 291.555 168.066 294.122C169.983 296.768 171.436 298.043 172.287 298.541C172.75 298.19 173.698 297.308 174.995 295.26C178.791 289.27 183.166 277.223 187.583 256.094C189.682 246.054 191.71 235.686 193.645 225.792C195.673 215.417 197.601 205.563 199.402 197.148C201.213 188.691 203.02 181.062 204.885 174.852C206.657 168.953 208.775 163.266 211.607 159.519C213.01 157.663 215.507 155.038 219.389 154.233C223.816 153.314 227.424 155.23 229.691 157.284C231.815 159.207 233.429 161.772 234.728 164.334C236.084 167.006 237.386 170.262 238.668 174.054C243.74 189.058 249.472 215.444 256.405 256.399C263.35 297.43 268.717 327.985 273.215 348.279C274.458 353.89 275.612 358.605 276.685 362.474C277.606 358.692 278.578 354.107 279.609 348.671C283.452 328.4 287.834 297.818 293.457 256.654C299.069 215.565 304.09 189.281 308.884 174.468C310.097 170.721 311.364 167.488 312.725 164.836C314.025 162.303 315.714 159.691 318.043 157.788C320.66 155.649 324.417 154.218 328.629 155.372C332.202 156.351 334.589 158.821 336.031 160.688C338.957 164.476 341.283 170.162 343.282 176.168C345.368 182.438 347.413 190.076 349.449 198.478C351.905 208.609 354.441 220.249 357.068 232.309C358.769 240.116 360.508 248.1 362.289 255.964C366.84 276.063 371.449 287.582 375.432 293.36C377.396 296.21 378.689 296.893 378.985 297.008C378.989 297.009 378.993 297.011 378.997 297.012C379.064 296.994 379.193 296.95 379.392 296.849C380.227 296.421 381.655 295.297 383.508 292.874C385.305 290.526 387.181 287.38 389.065 283.519C392.833 275.796 396.283 265.936 399.112 255.613C402.248 244.166 406.924 234.995 412.82 228.55C418.752 222.066 426.253 218.051 434.506 218.154C451.255 218.363 463.181 234.425 468 255.985L451.872 259.506C447.442 239.688 438.755 234.531 434.297 234.475C431.946 234.446 428.694 235.537 425.072 239.497C421.413 243.496 417.732 250.106 415.054 259.879C412.069 270.774 408.303 281.67 403.943 290.608C401.762 295.076 399.346 299.237 396.684 302.718C394.078 306.124 390.88 309.352 386.984 311.344C382.803 313.483 377.896 314.123 372.942 312.199C368.357 310.418 364.725 306.819 361.781 302.549C355.948 294.087 350.809 280.011 346.171 259.528C344.319 251.347 342.555 243.247 340.849 235.412C338.265 223.545 335.813 212.287 333.387 202.28C331.387 194.03 329.466 186.901 327.592 181.267C326.937 179.298 326.319 177.612 325.745 176.188C325.384 177.152 325.007 178.233 324.616 179.441C320.315 192.728 315.444 217.702 309.825 258.837C304.216 299.899 299.779 330.918 295.843 351.677C293.886 361.999 291.984 370.169 290.01 375.875C289.043 378.671 287.887 381.392 286.4 383.561C285.155 385.378 282.097 389.094 276.854 389.045C271.742 388.997 268.722 385.376 267.476 383.619C265.961 381.482 264.735 378.79 263.68 375.986C261.532 370.275 259.37 362.101 257.081 351.771C252.478 331.002 247.043 300.021 240.114 259.092C233.173 218.088 227.615 192.87 223.002 179.226C222.6 178.038 222.214 176.961 221.842 175.989C221.485 177.029 221.11 178.195 220.719 179.496C219.045 185.072 217.346 192.194 215.561 200.527C213.697 209.235 211.863 218.629 209.91 228.64ZM224.988 169.11C224.988 169.113 224.966 169.139 224.921 169.183C224.965 169.13 224.987 169.108 224.988 169.11ZM322.648 170.299C322.649 170.297 322.669 170.315 322.709 170.359C322.668 170.323 322.648 170.301 322.648 170.299ZM272.622 374.544C272.622 374.541 272.65 374.5 272.708 374.434C272.651 374.515 272.622 374.548 272.622 374.544ZM281.033 374.294C281.107 374.374 281.143 374.424 281.143 374.429C281.142 374.434 281.106 374.394 281.033 374.294Z" fill="white"/>
<mask id="mask0" mask-type="alpha" maskUnits="userSpaceOnUse" x="215" y="165" width="118" height="242">
<path d="M215.49 165.428H332.758V407H215.49V165.428Z" fill="white"/>
</mask>
<g mask="url(#mask0)">
<path fill-rule="evenodd" clip-rule="evenodd" d="M203.769 238.076C201.619 247.397 199.33 257.321 196.855 267.346C191.783 287.891 186.145 302.592 179.375 311.638C175.904 316.277 171.407 320.416 165.554 322.377C159.308 324.469 153.281 323.499 148.28 321.044C139.512 316.74 132.91 307.416 128.06 299.09C122.831 290.111 118.026 279.344 113.803 269.04C110.011 259.788 106.016 253.737 102.474 250.184C98.9917 246.69 96.6253 246.218 95.5165 246.218C94.4076 246.218 92.0412 246.69 88.5589 250.184C85.0173 253.737 81.0218 259.788 77.2299 269.04L54.267 259.848C58.7998 248.789 64.3275 239.605 70.9084 233.003C77.5484 226.341 85.9036 221.735 95.5165 221.735C105.129 221.735 113.485 226.341 120.125 233.003C126.705 239.605 132.233 248.789 136.766 259.848C140.867 269.856 145.165 279.379 149.532 286.876C153.438 293.581 156.492 297.03 158.306 298.46C158.617 298.133 159.002 297.686 159.455 297.08C163.124 292.178 167.85 281.534 172.786 261.542C175.216 251.7 177.47 241.931 179.631 232.563L179.753 232.033C181.941 222.549 184.045 213.439 186.107 205.286C188.16 197.169 190.244 189.7 192.428 183.54C194.455 177.825 197.105 171.599 200.935 167.309C202.944 165.059 206.333 162.141 211.281 161.272C216.693 160.321 221.288 162.258 224.452 164.685C227.371 166.923 229.526 169.866 231.16 172.594C232.866 175.442 234.447 178.813 235.954 182.587C241.869 197.401 248.403 223.013 256.211 262.071C264.043 301.249 270.057 330.227 275.075 349.401C275.345 350.43 275.609 351.424 275.87 352.384C276.051 351.6 276.235 350.793 276.42 349.963C280.707 330.82 285.617 301.821 291.957 262.517C298.278 223.329 304.003 197.753 309.621 183.054C311.056 179.301 312.608 175.916 314.345 173.051C316.009 170.306 318.289 167.283 321.488 165.069C325.059 162.598 329.789 161.183 334.936 162.377C339.518 163.44 342.732 166.195 344.735 168.391C348.622 172.652 351.512 178.79 353.806 184.63C356.248 190.843 358.605 198.317 360.916 206.391C363.697 216.104 366.592 227.356 369.571 238.932C371.484 246.367 373.431 253.936 375.405 261.316C380.471 280.263 385.432 290.404 389.275 295.124C390.266 296.342 390.996 296.966 391.421 297.27C393.019 296.37 396.251 293.348 400.283 286.352C404.297 279.383 408.052 270.338 411.165 260.716C418.507 238.024 434.106 222.012 453.87 222.222C473.777 222.432 488.573 238.952 494.487 261.354L470.514 267.534C466.009 250.467 457.586 246.746 453.604 246.704C449.479 246.66 440.519 250.383 434.763 268.172C431.328 278.79 426.954 289.543 421.812 298.466C417.004 306.811 410.239 315.875 401.021 319.868C395.893 322.09 389.996 322.728 383.998 320.755C378.287 318.877 373.679 315.027 369.971 310.471C362.756 301.609 356.737 287.335 351.452 267.572C349.333 259.646 347.335 251.875 345.411 244.393C342.52 233.148 339.796 222.554 337.077 213.056C335.116 206.206 333.253 200.278 331.461 195.454C327.136 208.374 322.153 230.848 316.423 266.371C310.112 305.498 305.087 335.26 300.61 355.253C298.393 365.157 296.172 373.316 293.773 379.188C292.6 382.059 291.081 385.158 288.994 387.736C287.045 390.144 282.845 394.195 276.257 394.143C269.818 394.092 265.691 390.13 263.78 387.847C261.68 385.339 260.081 382.306 258.807 379.438C256.207 373.586 253.684 365.444 251.09 355.531C245.856 335.536 239.703 305.818 231.906 266.817C224.874 231.637 219.166 209 214.455 195.697C213.072 200.076 211.645 205.282 210.143 211.222C208.155 219.083 206.109 227.935 203.908 237.475L203.769 238.076ZM326.334 184.785C326.334 184.785 326.334 184.785 326.334 184.785C326.277 184.722 326.276 184.729 326.334 184.785Z" fill="white"/>
</g>
</g>
</g>
<defs>
<filter id="filter0_d" x="15" y="15" width="528" height="528" filterUnits="userSpaceOnUse" color-interpolation-filters="sRGB">
<feFlood flood-opacity="0" result="BackgroundImageFix"/>
<feColorMatrix in="SourceAlpha" type="matrix" values="0 0 0 0 0 0 0 0 0 0 0 0 0 0 0 0 0 0 127 0"/>
<feOffset dx="4" dy="4"/>
<feGaussianBlur stdDeviation="2"/>
<feColorMatrix type="matrix" values="0 0 0 0 0 0 0 0 0 0 0 0 0 0 0 0 0 0 0.5 0"/>
<feBlend mode="normal" in2="BackgroundImageFix" result="effect1_dropShadow"/>
<feBlend mode="normal" in="SourceGraphic" in2="effect1_dropShadow" result="shape"/>
</filter>
<filter id="filter1_d" x="78.1527" y="153.997" width="393.847" height="248.147" filterUnits="userSpaceOnUse" color-interpolation-filters="sRGB">
<feFlood flood-opacity="0" result="BackgroundImageFix"/>
<feColorMatrix in="SourceAlpha" type="matrix" values="0 0 0 0 0 0 0 0 0 0 0 0 0 0 0 0 0 0 127 0"/>
<feOffset dy="4"/>
<feGaussianBlur stdDeviation="2"/>
<feColorMatrix type="matrix" values="0 0 0 0 0 0 0 0 0 0 0 0 0 0 0 0 0 0 0.25 0"/>
<feBlend mode="normal" in2="BackgroundImageFix" result="effect1_dropShadow"/>
<feBlend mode="normal" in="SourceGraphic" in2="effect1_dropShadow" result="shape"/>
</filter>
<linearGradient id="paint0_linear" x1="550" y1="0" x2="0" y2="550" gradientUnits="userSpaceOnUse">
<stop stop-color="white"/>
<stop offset="1" stop-color="white"/>
</linearGradient>
<linearGradient id="paint1_linear" x1="131" y1="69" x2="412" y2="484" gradientUnits="userSpaceOnUse">
<stop stop-color="#FF0062"/>
<stop offset="1" stop-color="#FFD2E4"/>
</linearGradient>
<linearGradient id="paint2_linear" x1="137" y1="68" x2="431" y2="470" gradientUnits="userSpaceOnUse">
<stop offset="0.505208" stop-color="white"/>
<stop offset="1" stop-color="#9B094E"/>
</linearGradient>
</defs>
</svg>
